<svg xmlns="http://www.w3.org/2000/svg" width="65" height="56" viewBox="0 0 65 56">
    <g fill="#F6BE00" fill-rule="evenodd">
        <path d="M34.88 28.85c-4.357 0-7.902-3.475-7.902-7.753l-.014-5.748-5.412.013.014 5.741c0 7.198 5.973 13.053 13.315 13.053v-5.305zM25.06 13.26a2.796 2.796 0 0 0 2.806-2.787 2.796 2.796 0 0 0-2.806-2.786 2.796 2.796 0 0 0-2.806 2.786 2.796 2.796 0 0 0 2.806 2.786M10.144 13.815H5.923V2.637C5.923 1.194 4.71.025 3.215.025 1.72.025.507 1.194.507 2.637V19.04l5.416-5.225v5.225h4.405c2.43 0 4.405 1.906 4.405 4.25 0 2.342-1.976 4.249-4.405 4.249-2.429 0-4.405-1.907-4.405-4.25v-4.25H.507v4.39h.004c.077 5.16 4.45 9.334 9.817 9.334 5.494 0 9.949-4.374 9.818-9.702-.126-5.172-4.639-9.246-10.002-9.246"/>
        <path d="M43.231 50.534c-2.455 0-4.454-1.903-4.454-4.242 0-2.34 1.999-4.243 4.454-4.243h4.442l.013 4.243c0 2.339-1.999 4.242-4.455 4.242m18.281-13.701h-8.406c-.214-2.149-1.28-4.065-2.869-5.44 2.186-2.096 3.429-5.084 3.062-8.333-.53-4.698-4.469-8.488-9.396-9.033-4.68-.518-8.856 1.85-10.824 5.477-.746 1.375-.059 3.064 1.458 3.62 1.302.476 2.77-.057 3.41-1.237.963-1.77 3.001-2.928 5.286-2.682 2.46.264 4.346 2.064 4.62 4.406.354 3.018-2.124 5.583-5.22 5.588h-4.471v5.216h6.123c1.575 0 2.901 1.029 3.278 2.418h-4.12c-5.404 0-9.977 4.028-10.137 9.172-.167 5.346 4.35 9.745 9.925 9.745 5.476 0 9.93-4.243 9.93-9.466l-.012-4.235h8.457c1.573 0 2.836-1.262 2.732-2.781-.094-1.386-1.367-2.435-2.826-2.435"/>
    </g>
</svg>
